<svg id="Layer_1" data-name="Layer 1" xmlns="http://www.w3.org/2000/svg" viewBox="0 0 75.96 75.96"><defs><style>.cls-1{fill: none;}.cls-1,.cls-2{stroke-linecap:round;stroke-linejoin:round;stroke-width:4px;}</style></defs><title>dropdown-icon2</title><rect class="cls-1" x="2.84" y="2.84" width="70.28" height="70.28" rx="5.67" ry="5.67"/>
<!-- <path class="cls-2" d="M284.43,221.15H223.82a6.67,6.67,0,0,1-6.67-6.67V153.86a6.67,6.67,0,0,1,6.67-6.67h60.62a6.67,6.67,0,0,1,6.67,6.67v60.62A6.67,6.67,0,0,1,284.43,221.15Zm-63.61-65.61V212.8a4.67,4.67,0,0,0,4.67,4.67h57.26a4.67,4.67,0,0,0,4.67-4.67V155.54a4.67,4.67,0,0,0-4.67-4.67H225.5A4.67,4.67,0,0,0,220.83,155.54Z" transform="translate(-216.15 -146.19)"/> -->
<path class="cls-2" d="M254,198.27a1.84,1.84,0,0,1-1.36-.6l-22.31-24.53a1.84,1.84,0,0,1,2.72-2.48l22.31,24.53A1.84,1.84,0,0,1,254,198.27Z" transform="translate(-216.15 -146.19)"/>
<path class="cls-2" d="M254.24,198.27a1.84,1.84,0,0,1-1.36-3.08l22.31-24.53a1.84,1.84,0,0,1,2.72,2.48L255.6,197.67A1.84,1.84,0,0,1,254.24,198.27Z" transform="translate(-216.15 -146.19)"/>
</svg>